<?xml version="1.0" encoding="utf-8" standalone="no"?>
<!DOCTYPE svg PUBLIC "-//W3C//DTD SVG 1.1//EN"
  "http://www.w3.org/Graphics/SVG/1.1/DTD/svg11.dtd">
<svg xmlns:xlink="http://www.w3.org/1999/xlink" width="703.44pt" height="537.12pt" viewBox="0 0 703.44 537.12" xmlns="http://www.w3.org/2000/svg" version="1.1">
 <metadata>
  <rdf:RDF xmlns:dc="http://purl.org/dc/elements/1.1/" xmlns:cc="http://creativecommons.org/ns#" xmlns:rdf="http://www.w3.org/1999/02/22-rdf-syntax-ns#">
   <cc:Work>
    <dc:type rdf:resource="http://purl.org/dc/dcmitype/StillImage"/>
    <dc:date>2024-05-15T01:23:40.691656</dc:date>
    <dc:format>image/svg+xml</dc:format>
    <dc:creator>
     <cc:Agent>
      <dc:title>Matplotlib v3.8.4, https://matplotlib.org/</dc:title>
     </cc:Agent>
    </dc:creator>
   </cc:Work>
  </rdf:RDF>
 </metadata>
 <defs>
  <style type="text/css">*{stroke-linejoin: round; stroke-linecap: butt}</style>
 </defs>
 <g id="figure_1">
  <g id="patch_1">
   <path d="M 0 537.12 
L 703.44 537.12 
L 703.44 0 
L 0 0 
z
" style="fill: #ffffff"/>
  </g>
  <g id="axes_1">
   <g id="patch_2">
    <path d="M 66.89 490.84 
L 692.64 490.84 
L 692.64 10.8 
L 66.89 10.8 
z
" style="fill: #ffffff"/>
   </g>
   <g id="PathCollection_1">
    <defs>
     <path id="m616c88f993" d="M 0 3 
C 0.795609 3 1.55874 2.683901 2.12132 2.12132 
C 2.683901 1.55874 3 0.795609 3 0 
C 3 -0.795609 2.683901 -1.55874 2.12132 -2.12132 
C 1.55874 -2.683901 0.795609 -3 0 -3 
C -0.795609 -3 -1.55874 -2.683901 -2.12132 -2.12132 
C -2.683901 -1.55874 -3 -0.795609 -3 0 
C -3 0.795609 -2.683901 1.55874 -2.12132 2.12132 
C -1.55874 2.683901 -0.795609 3 0 3 
z
" style="stroke: #440154"/>
    </defs>
    <g clip-path="url(#p2e7445c535)">
     <use xlink:href="#m616c88f993" x="95.333182" y="346.379002" style="fill: #440154; stroke: #440154"/>
     <use xlink:href="#m616c88f993" x="206.875071" y="345.012846" style="fill: #440154; stroke: #440154"/>
     <use xlink:href="#m616c88f993" x="318.416961" y="346.659299" style="fill: #440154; stroke: #440154"/>
     <use xlink:href="#m616c88f993" x="429.95885" y="347.194003" style="fill: #440154; stroke: #440154"/>
     <use xlink:href="#m616c88f993" x="541.50074" y="346.545683" style="fill: #440154; stroke: #440154"/>
     <use xlink:href="#m616c88f993" x="653.042629" y="339.008594" style="fill: #440154; stroke: #440154"/>
    </g>
   </g>
   <g id="PathCollection_2">
    <defs>
     <path id="m1b6fc90b19" d="M 0 3 
C 0.795609 3 1.55874 2.683901 2.12132 2.12132 
C 2.683901 1.55874 3 0.795609 3 0 
C 3 -0.795609 2.683901 -1.55874 2.12132 -2.12132 
C 1.55874 -2.683901 0.795609 -3 0 -3 
C -0.795609 -3 -1.55874 -2.683901 -2.12132 -2.12132 
C -2.683901 -1.55874 -3 -0.795609 -3 0 
C -3 0.795609 -2.683901 1.55874 -2.12132 2.12132 
C -1.55874 2.683901 -0.795609 3 0 3 
z
" style="stroke: #31688e"/>
    </defs>
    <g clip-path="url(#p2e7445c535)">
     <use xlink:href="#m1b6fc90b19" x="106.487371" y="249.450989" style="fill: #31688e; stroke: #31688e"/>
     <use xlink:href="#m1b6fc90b19" x="218.02926" y="308.574628" style="fill: #31688e; stroke: #31688e"/>
     <use xlink:href="#m1b6fc90b19" x="329.57115" y="313.821083" style="fill: #31688e; stroke: #31688e"/>
     <use xlink:href="#m1b6fc90b19" x="441.113039" y="316.896469" style="fill: #31688e; stroke: #31688e"/>
     <use xlink:href="#m1b6fc90b19" x="552.654929" y="226.965277" style="fill: #31688e; stroke: #31688e"/>
     <use xlink:href="#m1b6fc90b19" x="664.196818" y="314.455919" style="fill: #31688e; stroke: #31688e"/>
    </g>
   </g>
   <g id="matplotlib.axis_1">
    <g id="xtick_1">
     <g id="line2d_1">
      <defs>
       <path id="m8847f6c6cd" d="M 0 0 
L 0 3.5 
" style="stroke: #000000; stroke-width: 0.8"/>
      </defs>
      <g>
       <use xlink:href="#m8847f6c6cd" x="106.487371" y="490.84" style="stroke: #000000; stroke-width: 0.8"/>
      </g>
     </g>
     <g id="text_1">
      <!-- 2.0 -->
      <g transform="translate(98.535808 505.438437) scale(0.1 -0.1)">
       <defs>
        <path id="DejaVuSans-32" d="M 1228 531 
L 3431 531 
L 3431 0 
L 469 0 
L 469 531 
Q 828 903 1448 1529 
Q 2069 2156 2228 2338 
Q 2531 2678 2651 2914 
Q 2772 3150 2772 3378 
Q 2772 3750 2511 3984 
Q 2250 4219 1831 4219 
Q 1534 4219 1204 4116 
Q 875 4013 500 3803 
L 500 4441 
Q 881 4594 1212 4672 
Q 1544 4750 1819 4750 
Q 2544 4750 2975 4387 
Q 3406 4025 3406 3419 
Q 3406 3131 3298 2873 
Q 3191 2616 2906 2266 
Q 2828 2175 2409 1742 
Q 1991 1309 1228 531 
z
" transform="scale(0.015625)"/>
        <path id="DejaVuSans-2e" d="M 684 794 
L 1344 794 
L 1344 0 
L 684 0 
L 684 794 
z
" transform="scale(0.015625)"/>
        <path id="DejaVuSans-30" d="M 2034 4250 
Q 1547 4250 1301 3770 
Q 1056 3291 1056 2328 
Q 1056 1369 1301 889 
Q 1547 409 2034 409 
Q 2525 409 2770 889 
Q 3016 1369 3016 2328 
Q 3016 3291 2770 3770 
Q 2525 4250 2034 4250 
z
M 2034 4750 
Q 2819 4750 3233 4129 
Q 3647 3509 3647 2328 
Q 3647 1150 3233 529 
Q 2819 -91 2034 -91 
Q 1250 -91 836 529 
Q 422 1150 422 2328 
Q 422 3509 836 4129 
Q 1250 4750 2034 4750 
z
" transform="scale(0.015625)"/>
       </defs>
       <use xlink:href="#DejaVuSans-32"/>
       <use xlink:href="#DejaVuSans-2e" x="63.623047"/>
       <use xlink:href="#DejaVuSans-30" x="95.410156"/>
      </g>
     </g>
    </g>
    <g id="xtick_2">
     <g id="line2d_2">
      <g>
       <use xlink:href="#m8847f6c6cd" x="218.02926" y="490.84" style="stroke: #000000; stroke-width: 0.8"/>
      </g>
     </g>
     <g id="text_2">
      <!-- 2.5 -->
      <g transform="translate(210.077698 505.438437) scale(0.1 -0.1)">
       <defs>
        <path id="DejaVuSans-35" d="M 691 4666 
L 3169 4666 
L 3169 4134 
L 1269 4134 
L 1269 2991 
Q 1406 3038 1543 3061 
Q 1681 3084 1819 3084 
Q 2600 3084 3056 2656 
Q 3513 2228 3513 1497 
Q 3513 744 3044 326 
Q 2575 -91 1722 -91 
Q 1428 -91 1123 -41 
Q 819 9 494 109 
L 494 744 
Q 775 591 1075 516 
Q 1375 441 1709 441 
Q 2250 441 2565 725 
Q 2881 1009 2881 1497 
Q 2881 1984 2565 2268 
Q 2250 2553 1709 2553 
Q 1456 2553 1204 2497 
Q 953 2441 691 2322 
L 691 4666 
z
" transform="scale(0.015625)"/>
       </defs>
       <use xlink:href="#DejaVuSans-32"/>
       <use xlink:href="#DejaVuSans-2e" x="63.623047"/>
       <use xlink:href="#DejaVuSans-35" x="95.410156"/>
      </g>
     </g>
    </g>
    <g id="xtick_3">
     <g id="line2d_3">
      <g>
       <use xlink:href="#m8847f6c6cd" x="329.57115" y="490.84" style="stroke: #000000; stroke-width: 0.8"/>
      </g>
     </g>
     <g id="text_3">
      <!-- 3.0 -->
      <g transform="translate(321.619587 505.438437) scale(0.1 -0.1)">
       <defs>
        <path id="DejaVuSans-33" d="M 2597 2516 
Q 3050 2419 3304 2112 
Q 3559 1806 3559 1356 
Q 3559 666 3084 287 
Q 2609 -91 1734 -91 
Q 1441 -91 1130 -33 
Q 819 25 488 141 
L 488 750 
Q 750 597 1062 519 
Q 1375 441 1716 441 
Q 2309 441 2620 675 
Q 2931 909 2931 1356 
Q 2931 1769 2642 2001 
Q 2353 2234 1838 2234 
L 1294 2234 
L 1294 2753 
L 1863 2753 
Q 2328 2753 2575 2939 
Q 2822 3125 2822 3475 
Q 2822 3834 2567 4026 
Q 2313 4219 1838 4219 
Q 1578 4219 1281 4162 
Q 984 4106 628 3988 
L 628 4550 
Q 988 4650 1302 4700 
Q 1616 4750 1894 4750 
Q 2613 4750 3031 4423 
Q 3450 4097 3450 3541 
Q 3450 3153 3228 2886 
Q 3006 2619 2597 2516 
z
" transform="scale(0.015625)"/>
       </defs>
       <use xlink:href="#DejaVuSans-33"/>
       <use xlink:href="#DejaVuSans-2e" x="63.623047"/>
       <use xlink:href="#DejaVuSans-30" x="95.410156"/>
      </g>
     </g>
    </g>
    <g id="xtick_4">
     <g id="line2d_4">
      <g>
       <use xlink:href="#m8847f6c6cd" x="441.113039" y="490.84" style="stroke: #000000; stroke-width: 0.8"/>
      </g>
     </g>
     <g id="text_4">
      <!-- 3.5 -->
      <g transform="translate(433.161477 505.438437) scale(0.1 -0.1)">
       <use xlink:href="#DejaVuSans-33"/>
       <use xlink:href="#DejaVuSans-2e" x="63.623047"/>
       <use xlink:href="#DejaVuSans-35" x="95.410156"/>
      </g>
     </g>
    </g>
    <g id="xtick_5">
     <g id="line2d_5">
      <g>
       <use xlink:href="#m8847f6c6cd" x="552.654929" y="490.84" style="stroke: #000000; stroke-width: 0.8"/>
      </g>
     </g>
     <g id="text_5">
      <!-- 4.0 -->
      <g transform="translate(544.703366 505.438437) scale(0.1 -0.1)">
       <defs>
        <path id="DejaVuSans-34" d="M 2419 4116 
L 825 1625 
L 2419 1625 
L 2419 4116 
z
M 2253 4666 
L 3047 4666 
L 3047 1625 
L 3713 1625 
L 3713 1100 
L 3047 1100 
L 3047 0 
L 2419 0 
L 2419 1100 
L 313 1100 
L 313 1709 
L 2253 4666 
z
" transform="scale(0.015625)"/>
       </defs>
       <use xlink:href="#DejaVuSans-34"/>
       <use xlink:href="#DejaVuSans-2e" x="63.623047"/>
       <use xlink:href="#DejaVuSans-30" x="95.410156"/>
      </g>
     </g>
    </g>
    <g id="xtick_6">
     <g id="line2d_6">
      <g>
       <use xlink:href="#m8847f6c6cd" x="664.196818" y="490.84" style="stroke: #000000; stroke-width: 0.8"/>
      </g>
     </g>
     <g id="text_6">
      <!-- 4.5 -->
      <g transform="translate(656.245256 505.438437) scale(0.1 -0.1)">
       <use xlink:href="#DejaVuSans-34"/>
       <use xlink:href="#DejaVuSans-2e" x="63.623047"/>
       <use xlink:href="#DejaVuSans-35" x="95.410156"/>
      </g>
     </g>
    </g>
    <g id="text_7">
     <!-- Sensing radius [mm] -->
     <g transform="translate(301.715781 522.915781) scale(0.15 -0.15)">
      <defs>
       <path id="DejaVuSans-53" d="M 3425 4513 
L 3425 3897 
Q 3066 4069 2747 4153 
Q 2428 4238 2131 4238 
Q 1616 4238 1336 4038 
Q 1056 3838 1056 3469 
Q 1056 3159 1242 3001 
Q 1428 2844 1947 2747 
L 2328 2669 
Q 3034 2534 3370 2195 
Q 3706 1856 3706 1288 
Q 3706 609 3251 259 
Q 2797 -91 1919 -91 
Q 1588 -91 1214 -16 
Q 841 59 441 206 
L 441 856 
Q 825 641 1194 531 
Q 1563 422 1919 422 
Q 2459 422 2753 634 
Q 3047 847 3047 1241 
Q 3047 1584 2836 1778 
Q 2625 1972 2144 2069 
L 1759 2144 
Q 1053 2284 737 2584 
Q 422 2884 422 3419 
Q 422 4038 858 4394 
Q 1294 4750 2059 4750 
Q 2388 4750 2728 4690 
Q 3069 4631 3425 4513 
z
" transform="scale(0.015625)"/>
       <path id="DejaVuSans-65" d="M 3597 1894 
L 3597 1613 
L 953 1613 
Q 991 1019 1311 708 
Q 1631 397 2203 397 
Q 2534 397 2845 478 
Q 3156 559 3463 722 
L 3463 178 
Q 3153 47 2828 -22 
Q 2503 -91 2169 -91 
Q 1331 -91 842 396 
Q 353 884 353 1716 
Q 353 2575 817 3079 
Q 1281 3584 2069 3584 
Q 2775 3584 3186 3129 
Q 3597 2675 3597 1894 
z
M 3022 2063 
Q 3016 2534 2758 2815 
Q 2500 3097 2075 3097 
Q 1594 3097 1305 2825 
Q 1016 2553 972 2059 
L 3022 2063 
z
" transform="scale(0.015625)"/>
       <path id="DejaVuSans-6e" d="M 3513 2113 
L 3513 0 
L 2938 0 
L 2938 2094 
Q 2938 2591 2744 2837 
Q 2550 3084 2163 3084 
Q 1697 3084 1428 2787 
Q 1159 2491 1159 1978 
L 1159 0 
L 581 0 
L 581 3500 
L 1159 3500 
L 1159 2956 
Q 1366 3272 1645 3428 
Q 1925 3584 2291 3584 
Q 2894 3584 3203 3211 
Q 3513 2838 3513 2113 
z
" transform="scale(0.015625)"/>
       <path id="DejaVuSans-73" d="M 2834 3397 
L 2834 2853 
Q 2591 2978 2328 3040 
Q 2066 3103 1784 3103 
Q 1356 3103 1142 2972 
Q 928 2841 928 2578 
Q 928 2378 1081 2264 
Q 1234 2150 1697 2047 
L 1894 2003 
Q 2506 1872 2764 1633 
Q 3022 1394 3022 966 
Q 3022 478 2636 193 
Q 2250 -91 1575 -91 
Q 1294 -91 989 -36 
Q 684 19 347 128 
L 347 722 
Q 666 556 975 473 
Q 1284 391 1588 391 
Q 1994 391 2212 530 
Q 2431 669 2431 922 
Q 2431 1156 2273 1281 
Q 2116 1406 1581 1522 
L 1381 1569 
Q 847 1681 609 1914 
Q 372 2147 372 2553 
Q 372 3047 722 3315 
Q 1072 3584 1716 3584 
Q 2034 3584 2315 3537 
Q 2597 3491 2834 3397 
z
" transform="scale(0.015625)"/>
       <path id="DejaVuSans-69" d="M 603 3500 
L 1178 3500 
L 1178 0 
L 603 0 
L 603 3500 
z
M 603 4863 
L 1178 4863 
L 1178 4134 
L 603 4134 
L 603 4863 
z
" transform="scale(0.015625)"/>
       <path id="DejaVuSans-67" d="M 2906 1791 
Q 2906 2416 2648 2759 
Q 2391 3103 1925 3103 
Q 1463 3103 1205 2759 
Q 947 2416 947 1791 
Q 947 1169 1205 825 
Q 1463 481 1925 481 
Q 2391 481 2648 825 
Q 2906 1169 2906 1791 
z
M 3481 434 
Q 3481 -459 3084 -895 
Q 2688 -1331 1869 -1331 
Q 1566 -1331 1297 -1286 
Q 1028 -1241 775 -1147 
L 775 -588 
Q 1028 -725 1275 -790 
Q 1522 -856 1778 -856 
Q 2344 -856 2625 -561 
Q 2906 -266 2906 331 
L 2906 616 
Q 2728 306 2450 153 
Q 2172 0 1784 0 
Q 1141 0 747 490 
Q 353 981 353 1791 
Q 353 2603 747 3093 
Q 1141 3584 1784 3584 
Q 2172 3584 2450 3431 
Q 2728 3278 2906 2969 
L 2906 3500 
L 3481 3500 
L 3481 434 
z
" transform="scale(0.015625)"/>
       <path id="DejaVuSans-20" transform="scale(0.015625)"/>
       <path id="DejaVuSans-72" d="M 2631 2963 
Q 2534 3019 2420 3045 
Q 2306 3072 2169 3072 
Q 1681 3072 1420 2755 
Q 1159 2438 1159 1844 
L 1159 0 
L 581 0 
L 581 3500 
L 1159 3500 
L 1159 2956 
Q 1341 3275 1631 3429 
Q 1922 3584 2338 3584 
Q 2397 3584 2469 3576 
Q 2541 3569 2628 3553 
L 2631 2963 
z
" transform="scale(0.015625)"/>
       <path id="DejaVuSans-61" d="M 2194 1759 
Q 1497 1759 1228 1600 
Q 959 1441 959 1056 
Q 959 750 1161 570 
Q 1363 391 1709 391 
Q 2188 391 2477 730 
Q 2766 1069 2766 1631 
L 2766 1759 
L 2194 1759 
z
M 3341 1997 
L 3341 0 
L 2766 0 
L 2766 531 
Q 2569 213 2275 61 
Q 1981 -91 1556 -91 
Q 1019 -91 701 211 
Q 384 513 384 1019 
Q 384 1609 779 1909 
Q 1175 2209 1959 2209 
L 2766 2209 
L 2766 2266 
Q 2766 2663 2505 2880 
Q 2244 3097 1772 3097 
Q 1472 3097 1187 3025 
Q 903 2953 641 2809 
L 641 3341 
Q 956 3463 1253 3523 
Q 1550 3584 1831 3584 
Q 2591 3584 2966 3190 
Q 3341 2797 3341 1997 
z
" transform="scale(0.015625)"/>
       <path id="DejaVuSans-64" d="M 2906 2969 
L 2906 4863 
L 3481 4863 
L 3481 0 
L 2906 0 
L 2906 525 
Q 2725 213 2448 61 
Q 2172 -91 1784 -91 
Q 1150 -91 751 415 
Q 353 922 353 1747 
Q 353 2572 751 3078 
Q 1150 3584 1784 3584 
Q 2172 3584 2448 3432 
Q 2725 3281 2906 2969 
z
M 947 1747 
Q 947 1113 1208 752 
Q 1469 391 1925 391 
Q 2381 391 2643 752 
Q 2906 1113 2906 1747 
Q 2906 2381 2643 2742 
Q 2381 3103 1925 3103 
Q 1469 3103 1208 2742 
Q 947 2381 947 1747 
z
" transform="scale(0.015625)"/>
       <path id="DejaVuSans-75" d="M 544 1381 
L 544 3500 
L 1119 3500 
L 1119 1403 
Q 1119 906 1312 657 
Q 1506 409 1894 409 
Q 2359 409 2629 706 
Q 2900 1003 2900 1516 
L 2900 3500 
L 3475 3500 
L 3475 0 
L 2900 0 
L 2900 538 
Q 2691 219 2414 64 
Q 2138 -91 1772 -91 
Q 1169 -91 856 284 
Q 544 659 544 1381 
z
M 1991 3584 
L 1991 3584 
z
" transform="scale(0.015625)"/>
       <path id="DejaVuSans-5b" d="M 550 4863 
L 1875 4863 
L 1875 4416 
L 1125 4416 
L 1125 -397 
L 1875 -397 
L 1875 -844 
L 550 -844 
L 550 4863 
z
" transform="scale(0.015625)"/>
       <path id="DejaVuSans-6d" d="M 3328 2828 
Q 3544 3216 3844 3400 
Q 4144 3584 4550 3584 
Q 5097 3584 5394 3201 
Q 5691 2819 5691 2113 
L 5691 0 
L 5113 0 
L 5113 2094 
Q 5113 2597 4934 2840 
Q 4756 3084 4391 3084 
Q 3944 3084 3684 2787 
Q 3425 2491 3425 1978 
L 3425 0 
L 2847 0 
L 2847 2094 
Q 2847 2600 2669 2842 
Q 2491 3084 2119 3084 
Q 1678 3084 1418 2786 
Q 1159 2488 1159 1978 
L 1159 0 
L 581 0 
L 581 3500 
L 1159 3500 
L 1159 2956 
Q 1356 3278 1631 3431 
Q 1906 3584 2284 3584 
Q 2666 3584 2933 3390 
Q 3200 3197 3328 2828 
z
" transform="scale(0.015625)"/>
       <path id="DejaVuSans-5d" d="M 1947 4863 
L 1947 -844 
L 622 -844 
L 622 -397 
L 1369 -397 
L 1369 4416 
L 622 4416 
L 622 4863 
L 1947 4863 
z
" transform="scale(0.015625)"/>
      </defs>
      <use xlink:href="#DejaVuSans-53"/>
      <use xlink:href="#DejaVuSans-65" x="63.476562"/>
      <use xlink:href="#DejaVuSans-6e" x="125"/>
      <use xlink:href="#DejaVuSans-73" x="188.378906"/>
      <use xlink:href="#DejaVuSans-69" x="240.478516"/>
      <use xlink:href="#DejaVuSans-6e" x="268.261719"/>
      <use xlink:href="#DejaVuSans-67" x="331.640625"/>
      <use xlink:href="#DejaVuSans-20" x="395.117188"/>
      <use xlink:href="#DejaVuSans-72" x="426.904297"/>
      <use xlink:href="#DejaVuSans-61" x="468.017578"/>
      <use xlink:href="#DejaVuSans-64" x="529.296875"/>
      <use xlink:href="#DejaVuSans-69" x="592.773438"/>
      <use xlink:href="#DejaVuSans-75" x="620.556641"/>
      <use xlink:href="#DejaVuSans-73" x="683.935547"/>
      <use xlink:href="#DejaVuSans-20" x="736.035156"/>
      <use xlink:href="#DejaVuSans-5b" x="767.822266"/>
      <use xlink:href="#DejaVuSans-6d" x="806.835938"/>
      <use xlink:href="#DejaVuSans-6d" x="904.248047"/>
      <use xlink:href="#DejaVuSans-5d" x="1001.660156"/>
     </g>
    </g>
   </g>
   <g id="matplotlib.axis_2">
    <g id="ytick_1">
     <g id="line2d_7">
      <path d="M 66.89 456.896081 
L 692.64 456.896081 
" clip-path="url(#p2e7445c535)" style="fill: none; stroke: #b0b0b0; stroke-width: 0.8; stroke-linecap: square"/>
     </g>
     <g id="line2d_8">
      <defs>
       <path id="m3ad6dd852e" d="M 0 0 
L -3.5 0 
" style="stroke: #000000; stroke-width: 0.8"/>
      </defs>
      <g>
       <use xlink:href="#m3ad6dd852e" x="66.89" y="456.896081" style="stroke: #000000; stroke-width: 0.8"/>
      </g>
     </g>
     <g id="text_8">
      <!-- −0.50 -->
      <g transform="translate(29.244688 460.695299) scale(0.1 -0.1)">
       <defs>
        <path id="DejaVuSans-2212" d="M 678 2272 
L 4684 2272 
L 4684 1741 
L 678 1741 
L 678 2272 
z
" transform="scale(0.015625)"/>
       </defs>
       <use xlink:href="#DejaVuSans-2212"/>
       <use xlink:href="#DejaVuSans-30" x="83.789062"/>
       <use xlink:href="#DejaVuSans-2e" x="147.412109"/>
       <use xlink:href="#DejaVuSans-35" x="179.199219"/>
       <use xlink:href="#DejaVuSans-30" x="242.822266"/>
      </g>
     </g>
    </g>
    <g id="ytick_2">
     <g id="line2d_9">
      <path d="M 66.89 402.341192 
L 692.64 402.341192 
" clip-path="url(#p2e7445c535)" style="fill: none; stroke: #b0b0b0; stroke-width: 0.8; stroke-linecap: square"/>
     </g>
     <g id="line2d_10">
      <g>
       <use xlink:href="#m3ad6dd852e" x="66.89" y="402.341192" style="stroke: #000000; stroke-width: 0.8"/>
      </g>
     </g>
     <g id="text_9">
      <!-- −0.25 -->
      <g transform="translate(29.244688 406.14041) scale(0.1 -0.1)">
       <use xlink:href="#DejaVuSans-2212"/>
       <use xlink:href="#DejaVuSans-30" x="83.789062"/>
       <use xlink:href="#DejaVuSans-2e" x="147.412109"/>
       <use xlink:href="#DejaVuSans-32" x="179.199219"/>
       <use xlink:href="#DejaVuSans-35" x="242.822266"/>
      </g>
     </g>
    </g>
    <g id="ytick_3">
     <g id="line2d_11">
      <path d="M 66.89 347.786303 
L 692.64 347.786303 
" clip-path="url(#p2e7445c535)" style="fill: none; stroke: #b0b0b0; stroke-width: 0.8; stroke-linecap: square"/>
     </g>
     <g id="line2d_12">
      <g>
       <use xlink:href="#m3ad6dd852e" x="66.89" y="347.786303" style="stroke: #000000; stroke-width: 0.8"/>
      </g>
     </g>
     <g id="text_10">
      <!-- 0.00 -->
      <g transform="translate(37.624375 351.585521) scale(0.1 -0.1)">
       <use xlink:href="#DejaVuSans-30"/>
       <use xlink:href="#DejaVuSans-2e" x="63.623047"/>
       <use xlink:href="#DejaVuSans-30" x="95.410156"/>
       <use xlink:href="#DejaVuSans-30" x="159.033203"/>
      </g>
     </g>
    </g>
    <g id="ytick_4">
     <g id="line2d_13">
      <path d="M 66.89 293.231414 
L 692.64 293.231414 
" clip-path="url(#p2e7445c535)" style="fill: none; stroke: #b0b0b0; stroke-width: 0.8; stroke-linecap: square"/>
     </g>
     <g id="line2d_14">
      <g>
       <use xlink:href="#m3ad6dd852e" x="66.89" y="293.231414" style="stroke: #000000; stroke-width: 0.8"/>
      </g>
     </g>
     <g id="text_11">
      <!-- 0.25 -->
      <g transform="translate(37.624375 297.030632) scale(0.1 -0.1)">
       <use xlink:href="#DejaVuSans-30"/>
       <use xlink:href="#DejaVuSans-2e" x="63.623047"/>
       <use xlink:href="#DejaVuSans-32" x="95.410156"/>
       <use xlink:href="#DejaVuSans-35" x="159.033203"/>
      </g>
     </g>
    </g>
    <g id="ytick_5">
     <g id="line2d_15">
      <path d="M 66.89 238.676524 
L 692.64 238.676524 
" clip-path="url(#p2e7445c535)" style="fill: none; stroke: #b0b0b0; stroke-width: 0.8; stroke-linecap: square"/>
     </g>
     <g id="line2d_16">
      <g>
       <use xlink:href="#m3ad6dd852e" x="66.89" y="238.676524" style="stroke: #000000; stroke-width: 0.8"/>
      </g>
     </g>
     <g id="text_12">
      <!-- 0.50 -->
      <g transform="translate(37.624375 242.475743) scale(0.1 -0.1)">
       <use xlink:href="#DejaVuSans-30"/>
       <use xlink:href="#DejaVuSans-2e" x="63.623047"/>
       <use xlink:href="#DejaVuSans-35" x="95.410156"/>
       <use xlink:href="#DejaVuSans-30" x="159.033203"/>
      </g>
     </g>
    </g>
    <g id="ytick_6">
     <g id="line2d_17">
      <path d="M 66.89 184.121635 
L 692.64 184.121635 
" clip-path="url(#p2e7445c535)" style="fill: none; stroke: #b0b0b0; stroke-width: 0.8; stroke-linecap: square"/>
     </g>
     <g id="line2d_18">
      <g>
       <use xlink:href="#m3ad6dd852e" x="66.89" y="184.121635" style="stroke: #000000; stroke-width: 0.8"/>
      </g>
     </g>
     <g id="text_13">
      <!-- 0.75 -->
      <g transform="translate(37.624375 187.920854) scale(0.1 -0.1)">
       <defs>
        <path id="DejaVuSans-37" d="M 525 4666 
L 3525 4666 
L 3525 4397 
L 1831 0 
L 1172 0 
L 2766 4134 
L 525 4134 
L 525 4666 
z
" transform="scale(0.015625)"/>
       </defs>
       <use xlink:href="#DejaVuSans-30"/>
       <use xlink:href="#DejaVuSans-2e" x="63.623047"/>
       <use xlink:href="#DejaVuSans-37" x="95.410156"/>
       <use xlink:href="#DejaVuSans-35" x="159.033203"/>
      </g>
     </g>
    </g>
    <g id="ytick_7">
     <g id="line2d_19">
      <path d="M 66.89 129.566746 
L 692.64 129.566746 
" clip-path="url(#p2e7445c535)" style="fill: none; stroke: #b0b0b0; stroke-width: 0.8; stroke-linecap: square"/>
     </g>
     <g id="line2d_20">
      <g>
       <use xlink:href="#m3ad6dd852e" x="66.89" y="129.566746" style="stroke: #000000; stroke-width: 0.8"/>
      </g>
     </g>
     <g id="text_14">
      <!-- 1.00 -->
      <g transform="translate(37.624375 133.365965) scale(0.1 -0.1)">
       <defs>
        <path id="DejaVuSans-31" d="M 794 531 
L 1825 531 
L 1825 4091 
L 703 3866 
L 703 4441 
L 1819 4666 
L 2450 4666 
L 2450 531 
L 3481 531 
L 3481 0 
L 794 0 
L 794 531 
z
" transform="scale(0.015625)"/>
       </defs>
       <use xlink:href="#DejaVuSans-31"/>
       <use xlink:href="#DejaVuSans-2e" x="63.623047"/>
       <use xlink:href="#DejaVuSans-30" x="95.410156"/>
       <use xlink:href="#DejaVuSans-30" x="159.033203"/>
      </g>
     </g>
    </g>
    <g id="ytick_8">
     <g id="line2d_21">
      <path d="M 66.89 75.011857 
L 692.64 75.011857 
" clip-path="url(#p2e7445c535)" style="fill: none; stroke: #b0b0b0; stroke-width: 0.8; stroke-linecap: square"/>
     </g>
     <g id="line2d_22">
      <g>
       <use xlink:href="#m3ad6dd852e" x="66.89" y="75.011857" style="stroke: #000000; stroke-width: 0.8"/>
      </g>
     </g>
     <g id="text_15">
      <!-- 1.25 -->
      <g transform="translate(37.624375 78.811076) scale(0.1 -0.1)">
       <use xlink:href="#DejaVuSans-31"/>
       <use xlink:href="#DejaVuSans-2e" x="63.623047"/>
       <use xlink:href="#DejaVuSans-32" x="95.410156"/>
       <use xlink:href="#DejaVuSans-35" x="159.033203"/>
      </g>
     </g>
    </g>
    <g id="ytick_9">
     <g id="line2d_23">
      <path d="M 66.89 20.456968 
L 692.64 20.456968 
" clip-path="url(#p2e7445c535)" style="fill: none; stroke: #b0b0b0; stroke-width: 0.8; stroke-linecap: square"/>
     </g>
     <g id="line2d_24">
      <g>
       <use xlink:href="#m3ad6dd852e" x="66.89" y="20.456968" style="stroke: #000000; stroke-width: 0.8"/>
      </g>
     </g>
     <g id="text_16">
      <!-- 1.50 -->
      <g transform="translate(37.624375 24.256187) scale(0.1 -0.1)">
       <use xlink:href="#DejaVuSans-31"/>
       <use xlink:href="#DejaVuSans-2e" x="63.623047"/>
       <use xlink:href="#DejaVuSans-35" x="95.410156"/>
       <use xlink:href="#DejaVuSans-30" x="159.033203"/>
      </g>
     </g>
    </g>
    <g id="text_17">
     <!-- Estimation error [°] -->
     <g transform="translate(22.125156 323.280547) rotate(-90) scale(0.15 -0.15)">
      <defs>
       <path id="DejaVuSans-45" d="M 628 4666 
L 3578 4666 
L 3578 4134 
L 1259 4134 
L 1259 2753 
L 3481 2753 
L 3481 2222 
L 1259 2222 
L 1259 531 
L 3634 531 
L 3634 0 
L 628 0 
L 628 4666 
z
" transform="scale(0.015625)"/>
       <path id="DejaVuSans-74" d="M 1172 4494 
L 1172 3500 
L 2356 3500 
L 2356 3053 
L 1172 3053 
L 1172 1153 
Q 1172 725 1289 603 
Q 1406 481 1766 481 
L 2356 481 
L 2356 0 
L 1766 0 
Q 1100 0 847 248 
Q 594 497 594 1153 
L 594 3053 
L 172 3053 
L 172 3500 
L 594 3500 
L 594 4494 
L 1172 4494 
z
" transform="scale(0.015625)"/>
       <path id="DejaVuSans-6f" d="M 1959 3097 
Q 1497 3097 1228 2736 
Q 959 2375 959 1747 
Q 959 1119 1226 758 
Q 1494 397 1959 397 
Q 2419 397 2687 759 
Q 2956 1122 2956 1747 
Q 2956 2369 2687 2733 
Q 2419 3097 1959 3097 
z
M 1959 3584 
Q 2709 3584 3137 3096 
Q 3566 2609 3566 1747 
Q 3566 888 3137 398 
Q 2709 -91 1959 -91 
Q 1206 -91 779 398 
Q 353 888 353 1747 
Q 353 2609 779 3096 
Q 1206 3584 1959 3584 
z
" transform="scale(0.015625)"/>
       <path id="DejaVuSans-b0" d="M 1600 4347 
Q 1350 4347 1178 4173 
Q 1006 4000 1006 3750 
Q 1006 3503 1178 3333 
Q 1350 3163 1600 3163 
Q 1850 3163 2022 3333 
Q 2194 3503 2194 3750 
Q 2194 3997 2020 4172 
Q 1847 4347 1600 4347 
z
M 1600 4750 
Q 1800 4750 1984 4673 
Q 2169 4597 2303 4453 
Q 2447 4313 2519 4134 
Q 2591 3956 2591 3750 
Q 2591 3338 2302 3052 
Q 2013 2766 1594 2766 
Q 1172 2766 890 3047 
Q 609 3328 609 3750 
Q 609 4169 896 4459 
Q 1184 4750 1600 4750 
z
" transform="scale(0.015625)"/>
      </defs>
      <use xlink:href="#DejaVuSans-45"/>
      <use xlink:href="#DejaVuSans-73" x="63.183594"/>
      <use xlink:href="#DejaVuSans-74" x="115.283203"/>
      <use xlink:href="#DejaVuSans-69" x="154.492188"/>
      <use xlink:href="#DejaVuSans-6d" x="182.275391"/>
      <use xlink:href="#DejaVuSans-61" x="279.6875"/>
      <use xlink:href="#DejaVuSans-74" x="340.966797"/>
      <use xlink:href="#DejaVuSans-69" x="380.175781"/>
      <use xlink:href="#DejaVuSans-6f" x="407.958984"/>
      <use xlink:href="#DejaVuSans-6e" x="469.140625"/>
      <use xlink:href="#DejaVuSans-20" x="532.519531"/>
      <use xlink:href="#DejaVuSans-65" x="564.306641"/>
      <use xlink:href="#DejaVuSans-72" x="625.830078"/>
      <use xlink:href="#DejaVuSans-72" x="665.193359"/>
      <use xlink:href="#DejaVuSans-6f" x="704.056641"/>
      <use xlink:href="#DejaVuSans-72" x="765.238281"/>
      <use xlink:href="#DejaVuSans-20" x="806.351562"/>
      <use xlink:href="#DejaVuSans-5b" x="838.138672"/>
      <use xlink:href="#DejaVuSans-b0" x="877.152344"/>
      <use xlink:href="#DejaVuSans-5d" x="927.152344"/>
     </g>
    </g>
   </g>
   <g id="LineCollection_1">
    <path d="M 95.333182 356.767474 
L 95.333182 335.99053 
" clip-path="url(#p2e7445c535)" style="fill: none; stroke: #440154; stroke-width: 1.5"/>
    <path d="M 206.875071 378.751489 
L 206.875071 311.274202 
" clip-path="url(#p2e7445c535)" style="fill: none; stroke: #440154; stroke-width: 1.5"/>
    <path d="M 318.416961 356.524012 
L 318.416961 336.794586 
" clip-path="url(#p2e7445c535)" style="fill: none; stroke: #440154; stroke-width: 1.5"/>
    <path d="M 429.95885 347.89199 
L 429.95885 346.496016 
" clip-path="url(#p2e7445c535)" style="fill: none; stroke: #440154; stroke-width: 1.5"/>
    <path d="M 541.50074 352.587359 
L 541.50074 340.504007 
" clip-path="url(#p2e7445c535)" style="fill: none; stroke: #440154; stroke-width: 1.5"/>
    <path d="M 653.042629 378.601844 
L 653.042629 299.415343 
" clip-path="url(#p2e7445c535)" style="fill: none; stroke: #440154; stroke-width: 1.5"/>
   </g>
   <g id="line2d_25">
    <defs>
     <path id="m3cbd722e56" d="M 4 0 
L -4 -0 
" style="stroke: #440154"/>
    </defs>
    <g clip-path="url(#p2e7445c535)">
     <use xlink:href="#m3cbd722e56" x="95.333182" y="356.767474" style="fill: #440154; stroke: #440154"/>
     <use xlink:href="#m3cbd722e56" x="206.875071" y="378.751489" style="fill: #440154; stroke: #440154"/>
     <use xlink:href="#m3cbd722e56" x="318.416961" y="356.524012" style="fill: #440154; stroke: #440154"/>
     <use xlink:href="#m3cbd722e56" x="429.95885" y="347.89199" style="fill: #440154; stroke: #440154"/>
     <use xlink:href="#m3cbd722e56" x="541.50074" y="352.587359" style="fill: #440154; stroke: #440154"/>
     <use xlink:href="#m3cbd722e56" x="653.042629" y="378.601844" style="fill: #440154; stroke: #440154"/>
    </g>
   </g>
   <g id="line2d_26">
    <g clip-path="url(#p2e7445c535)">
     <use xlink:href="#m3cbd722e56" x="95.333182" y="335.99053" style="fill: #440154; stroke: #440154"/>
     <use xlink:href="#m3cbd722e56" x="206.875071" y="311.274202" style="fill: #440154; stroke: #440154"/>
     <use xlink:href="#m3cbd722e56" x="318.416961" y="336.794586" style="fill: #440154; stroke: #440154"/>
     <use xlink:href="#m3cbd722e56" x="429.95885" y="346.496016" style="fill: #440154; stroke: #440154"/>
     <use xlink:href="#m3cbd722e56" x="541.50074" y="340.504007" style="fill: #440154; stroke: #440154"/>
     <use xlink:href="#m3cbd722e56" x="653.042629" y="299.415343" style="fill: #440154; stroke: #440154"/>
    </g>
   </g>
   <g id="LineCollection_2">
    <path d="M 106.487371 398.301723 
L 106.487371 100.600255 
" clip-path="url(#p2e7445c535)" style="fill: none; stroke: #31688e; stroke-width: 1.5"/>
    <path d="M 218.02926 447.439182 
L 218.02926 169.710075 
" clip-path="url(#p2e7445c535)" style="fill: none; stroke: #31688e; stroke-width: 1.5"/>
    <path d="M 329.57115 469.02 
L 329.57115 158.622167 
" clip-path="url(#p2e7445c535)" style="fill: none; stroke: #31688e; stroke-width: 1.5"/>
    <path d="M 441.113039 455.290211 
L 441.113039 178.502727 
" clip-path="url(#p2e7445c535)" style="fill: none; stroke: #31688e; stroke-width: 1.5"/>
    <path d="M 552.654929 421.310553 
L 552.654929 32.62 
" clip-path="url(#p2e7445c535)" style="fill: none; stroke: #31688e; stroke-width: 1.5"/>
    <path d="M 664.196818 450.271981 
L 664.196818 178.639858 
" clip-path="url(#p2e7445c535)" style="fill: none; stroke: #31688e; stroke-width: 1.5"/>
   </g>
   <g id="line2d_27">
    <defs>
     <path id="m1dd5f25d84" d="M 4 0 
L -4 -0 
" style="stroke: #31688e"/>
    </defs>
    <g clip-path="url(#p2e7445c535)">
     <use xlink:href="#m1dd5f25d84" x="106.487371" y="398.301723" style="fill: #31688e; stroke: #31688e"/>
     <use xlink:href="#m1dd5f25d84" x="218.02926" y="447.439182" style="fill: #31688e; stroke: #31688e"/>
     <use xlink:href="#m1dd5f25d84" x="329.57115" y="469.02" style="fill: #31688e; stroke: #31688e"/>
     <use xlink:href="#m1dd5f25d84" x="441.113039" y="455.290211" style="fill: #31688e; stroke: #31688e"/>
     <use xlink:href="#m1dd5f25d84" x="552.654929" y="421.310553" style="fill: #31688e; stroke: #31688e"/>
     <use xlink:href="#m1dd5f25d84" x="664.196818" y="450.271981" style="fill: #31688e; stroke: #31688e"/>
    </g>
   </g>
   <g id="line2d_28">
    <g clip-path="url(#p2e7445c535)">
     <use xlink:href="#m1dd5f25d84" x="106.487371" y="100.600255" style="fill: #31688e; stroke: #31688e"/>
     <use xlink:href="#m1dd5f25d84" x="218.02926" y="169.710075" style="fill: #31688e; stroke: #31688e"/>
     <use xlink:href="#m1dd5f25d84" x="329.57115" y="158.622167" style="fill: #31688e; stroke: #31688e"/>
     <use xlink:href="#m1dd5f25d84" x="441.113039" y="178.502727" style="fill: #31688e; stroke: #31688e"/>
     <use xlink:href="#m1dd5f25d84" x="552.654929" y="32.62" style="fill: #31688e; stroke: #31688e"/>
     <use xlink:href="#m1dd5f25d84" x="664.196818" y="178.639858" style="fill: #31688e; stroke: #31688e"/>
    </g>
   </g>
   <g id="line2d_29"/>
   <g id="line2d_30"/>
   <g id="patch_3">
    <path d="M 66.89 490.84 
L 66.89 10.8 
" style="fill: none; stroke: #000000; stroke-width: 0.8; stroke-linejoin: miter; stroke-linecap: square"/>
   </g>
   <g id="patch_4">
    <path d="M 692.64 490.84 
L 692.64 10.8 
" style="fill: none; stroke: #000000; stroke-width: 0.8; stroke-linejoin: miter; stroke-linecap: square"/>
   </g>
   <g id="patch_5">
    <path d="M 66.89 490.84 
L 692.64 490.84 
" style="fill: none; stroke: #000000; stroke-width: 0.8; stroke-linejoin: miter; stroke-linecap: square"/>
   </g>
   <g id="patch_6">
    <path d="M 66.89 10.8 
L 692.64 10.8 
" style="fill: none; stroke: #000000; stroke-width: 0.8; stroke-linejoin: miter; stroke-linecap: square"/>
   </g>
   <g id="legend_1">
    <g id="patch_7">
     <path d="M 73.89 62.834375 
L 210.560313 62.834375 
Q 212.560313 62.834375 212.560313 60.834375 
L 212.560313 17.8 
Q 212.560313 15.8 210.560313 15.8 
L 73.89 15.8 
Q 71.89 15.8 71.89 17.8 
L 71.89 60.834375 
Q 71.89 62.834375 73.89 62.834375 
z
" style="fill: #ffffff; opacity: 0.8; stroke: #cccccc; stroke-linejoin: miter"/>
    </g>
    <g id="text_18">
     <!-- Sensor resolution [uT/LSB] -->
     <g transform="translate(75.89 27.398437) scale(0.1 -0.1)">
      <defs>
       <path id="DejaVuSans-6c" d="M 603 4863 
L 1178 4863 
L 1178 0 
L 603 0 
L 603 4863 
z
" transform="scale(0.015625)"/>
       <path id="DejaVuSans-54" d="M -19 4666 
L 3928 4666 
L 3928 4134 
L 2272 4134 
L 2272 0 
L 1638 0 
L 1638 4134 
L -19 4134 
L -19 4666 
z
" transform="scale(0.015625)"/>
       <path id="DejaVuSans-2f" d="M 1625 4666 
L 2156 4666 
L 531 -594 
L 0 -594 
L 1625 4666 
z
" transform="scale(0.015625)"/>
       <path id="DejaVuSans-4c" d="M 628 4666 
L 1259 4666 
L 1259 531 
L 3531 531 
L 3531 0 
L 628 0 
L 628 4666 
z
" transform="scale(0.015625)"/>
       <path id="DejaVuSans-42" d="M 1259 2228 
L 1259 519 
L 2272 519 
Q 2781 519 3026 730 
Q 3272 941 3272 1375 
Q 3272 1813 3026 2020 
Q 2781 2228 2272 2228 
L 1259 2228 
z
M 1259 4147 
L 1259 2741 
L 2194 2741 
Q 2656 2741 2882 2914 
Q 3109 3088 3109 3444 
Q 3109 3797 2882 3972 
Q 2656 4147 2194 4147 
L 1259 4147 
z
M 628 4666 
L 2241 4666 
Q 2963 4666 3353 4366 
Q 3744 4066 3744 3513 
Q 3744 3084 3544 2831 
Q 3344 2578 2956 2516 
Q 3422 2416 3680 2098 
Q 3938 1781 3938 1306 
Q 3938 681 3513 340 
Q 3088 0 2303 0 
L 628 0 
L 628 4666 
z
" transform="scale(0.015625)"/>
      </defs>
      <use xlink:href="#DejaVuSans-53"/>
      <use xlink:href="#DejaVuSans-65" x="63.476562"/>
      <use xlink:href="#DejaVuSans-6e" x="125"/>
      <use xlink:href="#DejaVuSans-73" x="188.378906"/>
      <use xlink:href="#DejaVuSans-6f" x="240.478516"/>
      <use xlink:href="#DejaVuSans-72" x="301.660156"/>
      <use xlink:href="#DejaVuSans-20" x="342.773438"/>
      <use xlink:href="#DejaVuSans-72" x="374.560547"/>
      <use xlink:href="#DejaVuSans-65" x="413.423828"/>
      <use xlink:href="#DejaVuSans-73" x="474.947266"/>
      <use xlink:href="#DejaVuSans-6f" x="527.046875"/>
      <use xlink:href="#DejaVuSans-6c" x="588.228516"/>
      <use xlink:href="#DejaVuSans-75" x="616.011719"/>
      <use xlink:href="#DejaVuSans-74" x="679.390625"/>
      <use xlink:href="#DejaVuSans-69" x="718.599609"/>
      <use xlink:href="#DejaVuSans-6f" x="746.382812"/>
      <use xlink:href="#DejaVuSans-6e" x="807.564453"/>
      <use xlink:href="#DejaVuSans-20" x="870.943359"/>
      <use xlink:href="#DejaVuSans-5b" x="902.730469"/>
      <use xlink:href="#DejaVuSans-75" x="941.744141"/>
      <use xlink:href="#DejaVuSans-54" x="1005.123047"/>
      <use xlink:href="#DejaVuSans-2f" x="1066.207031"/>
      <use xlink:href="#DejaVuSans-4c" x="1099.898438"/>
      <use xlink:href="#DejaVuSans-53" x="1155.611328"/>
      <use xlink:href="#DejaVuSans-42" x="1219.087891"/>
      <use xlink:href="#DejaVuSans-5d" x="1287.691406"/>
     </g>
    </g>
    <g id="patch_8">
     <path d="M 84.968906 42.076562 
L 104.968906 42.076562 
L 104.968906 35.076562 
L 84.968906 35.076562 
z
" style="fill: #440154; stroke: #440154; stroke-linejoin: miter"/>
    </g>
    <g id="text_19">
     <!-- 0.15 (Simulation) -->
     <g transform="translate(112.968906 42.076562) scale(0.1 -0.1)">
      <defs>
       <path id="DejaVuSans-28" d="M 1984 4856 
Q 1566 4138 1362 3434 
Q 1159 2731 1159 2009 
Q 1159 1288 1364 580 
Q 1569 -128 1984 -844 
L 1484 -844 
Q 1016 -109 783 600 
Q 550 1309 550 2009 
Q 550 2706 781 3412 
Q 1013 4119 1484 4856 
L 1984 4856 
z
" transform="scale(0.015625)"/>
       <path id="DejaVuSans-29" d="M 513 4856 
L 1013 4856 
Q 1481 4119 1714 3412 
Q 1947 2706 1947 2009 
Q 1947 1309 1714 600 
Q 1481 -109 1013 -844 
L 513 -844 
Q 928 -128 1133 580 
Q 1338 1288 1338 2009 
Q 1338 2731 1133 3434 
Q 928 4138 513 4856 
z
" transform="scale(0.015625)"/>
      </defs>
      <use xlink:href="#DejaVuSans-30"/>
      <use xlink:href="#DejaVuSans-2e" x="63.623047"/>
      <use xlink:href="#DejaVuSans-31" x="95.410156"/>
      <use xlink:href="#DejaVuSans-35" x="159.033203"/>
      <use xlink:href="#DejaVuSans-20" x="222.65625"/>
      <use xlink:href="#DejaVuSans-28" x="254.443359"/>
      <use xlink:href="#DejaVuSans-53" x="293.457031"/>
      <use xlink:href="#DejaVuSans-69" x="356.933594"/>
      <use xlink:href="#DejaVuSans-6d" x="384.716797"/>
      <use xlink:href="#DejaVuSans-75" x="482.128906"/>
      <use xlink:href="#DejaVuSans-6c" x="545.507812"/>
      <use xlink:href="#DejaVuSans-61" x="573.291016"/>
      <use xlink:href="#DejaVuSans-74" x="634.570312"/>
      <use xlink:href="#DejaVuSans-69" x="673.779297"/>
      <use xlink:href="#DejaVuSans-6f" x="701.5625"/>
      <use xlink:href="#DejaVuSans-6e" x="762.744141"/>
      <use xlink:href="#DejaVuSans-29" x="826.123047"/>
     </g>
    </g>
    <g id="patch_9">
     <path d="M 84.968906 56.754687 
L 104.968906 56.754687 
L 104.968906 49.754687 
L 84.968906 49.754687 
z
" style="fill: #31688e; stroke: #31688e; stroke-linejoin: miter"/>
    </g>
    <g id="text_20">
     <!-- 0.15 (Test Setup) -->
     <g transform="translate(112.968906 56.754687) scale(0.1 -0.1)">
      <defs>
       <path id="DejaVuSans-70" d="M 1159 525 
L 1159 -1331 
L 581 -1331 
L 581 3500 
L 1159 3500 
L 1159 2969 
Q 1341 3281 1617 3432 
Q 1894 3584 2278 3584 
Q 2916 3584 3314 3078 
Q 3713 2572 3713 1747 
Q 3713 922 3314 415 
Q 2916 -91 2278 -91 
Q 1894 -91 1617 61 
Q 1341 213 1159 525 
z
M 3116 1747 
Q 3116 2381 2855 2742 
Q 2594 3103 2138 3103 
Q 1681 3103 1420 2742 
Q 1159 2381 1159 1747 
Q 1159 1113 1420 752 
Q 1681 391 2138 391 
Q 2594 391 2855 752 
Q 3116 1113 3116 1747 
z
" transform="scale(0.015625)"/>
      </defs>
      <use xlink:href="#DejaVuSans-30"/>
      <use xlink:href="#DejaVuSans-2e" x="63.623047"/>
      <use xlink:href="#DejaVuSans-31" x="95.410156"/>
      <use xlink:href="#DejaVuSans-35" x="159.033203"/>
      <use xlink:href="#DejaVuSans-20" x="222.65625"/>
      <use xlink:href="#DejaVuSans-28" x="254.443359"/>
      <use xlink:href="#DejaVuSans-54" x="293.457031"/>
      <use xlink:href="#DejaVuSans-65" x="337.541016"/>
      <use xlink:href="#DejaVuSans-73" x="399.064453"/>
      <use xlink:href="#DejaVuSans-74" x="451.164062"/>
      <use xlink:href="#DejaVuSans-20" x="490.373047"/>
      <use xlink:href="#DejaVuSans-53" x="522.160156"/>
      <use xlink:href="#DejaVuSans-65" x="585.636719"/>
      <use xlink:href="#DejaVuSans-74" x="647.160156"/>
      <use xlink:href="#DejaVuSans-75" x="686.369141"/>
      <use xlink:href="#DejaVuSans-70" x="749.748047"/>
      <use xlink:href="#DejaVuSans-29" x="813.224609"/>
     </g>
    </g>
   </g>
  </g>
 </g>
 <defs>
  <clipPath id="p2e7445c535">
   <rect x="66.89" y="10.8" width="625.75" height="480.04"/>
  </clipPath>
 </defs>
</svg>
